<mxfile host="app.diagrams.net" modified="2023-11-09T17:39:11.990Z" agent="Mozilla/5.0 (Windows NT 10.0; Win64; x64) AppleWebKit/537.36 (KHTML, like Gecko) Chrome/119.0.0.0 Safari/537.36" etag="4nQCU85pR2HOzNKg1z3r" version="22.1.0" type="google">
  <diagram id="C5RBs43oDa-KdzZeNtuy" name="Page-1">
    <mxGraphModel grid="1" page="1" gridSize="10" guides="1" tooltips="1" connect="1" arrows="1" fold="1" pageScale="1" pageWidth="1800" pageHeight="1920" math="0" shadow="0">
      <root>
        <mxCell id="WIyWlLk6GJQsqaUBKTNV-0" />
        <mxCell id="WIyWlLk6GJQsqaUBKTNV-1" parent="WIyWlLk6GJQsqaUBKTNV-0" />
        <mxCell id="Tcdfzcvd-_jrXpOhCnX9-75" style="edgeStyle=orthogonalEdgeStyle;rounded=0;orthogonalLoop=1;jettySize=auto;html=1;entryX=0.5;entryY=0;entryDx=0;entryDy=0;exitX=0.5;exitY=0;exitDx=0;exitDy=0;endArrow=none;endFill=0;" edge="1" parent="WIyWlLk6GJQsqaUBKTNV-1" source="awH9nuX9rls_5YEyZ0Cw-0" target="vfd7xmm8oZpywfkyKX7Z-11">
          <mxGeometry relative="1" as="geometry">
            <Array as="points">
              <mxPoint x="160" y="120" />
              <mxPoint x="1290" y="120" />
            </Array>
          </mxGeometry>
        </mxCell>
        <mxCell id="awH9nuX9rls_5YEyZ0Cw-0" value="Pelanggan" style="swimlane;fontStyle=0;align=center;verticalAlign=top;childLayout=stackLayout;horizontal=1;startSize=26;horizontalStack=0;resizeParent=1;resizeLast=0;collapsible=1;marginBottom=0;rounded=0;shadow=0;strokeWidth=1;" vertex="1" parent="WIyWlLk6GJQsqaUBKTNV-1">
          <mxGeometry x="40" y="189" width="240" height="296" as="geometry">
            <mxRectangle x="550" y="140" width="160" height="26" as="alternateBounds" />
          </mxGeometry>
        </mxCell>
        <mxCell id="awH9nuX9rls_5YEyZ0Cw-3" value="- IDPelanggan : Integer" style="text;align=left;verticalAlign=top;spacingLeft=4;spacingRight=4;overflow=hidden;rotatable=0;points=[[0,0.5],[1,0.5]];portConstraint=eastwest;rounded=0;shadow=0;html=0;" vertex="1" parent="awH9nuX9rls_5YEyZ0Cw-0">
          <mxGeometry y="26" width="240" height="26" as="geometry" />
        </mxCell>
        <mxCell id="awH9nuX9rls_5YEyZ0Cw-2" value="- phone : Integer" style="text;align=left;verticalAlign=top;spacingLeft=4;spacingRight=4;overflow=hidden;rotatable=0;points=[[0,0.5],[1,0.5]];portConstraint=eastwest;rounded=0;shadow=0;html=0;" vertex="1" parent="awH9nuX9rls_5YEyZ0Cw-0">
          <mxGeometry y="52" width="240" height="26" as="geometry" />
        </mxCell>
        <mxCell id="iFjl2SQ5cRS5z_VwTl6N-2" value="- budget : Integer" style="text;align=left;verticalAlign=top;spacingLeft=4;spacingRight=4;overflow=hidden;rotatable=0;points=[[0,0.5],[1,0.5]];portConstraint=eastwest;rounded=0;shadow=0;html=0;" vertex="1" parent="awH9nuX9rls_5YEyZ0Cw-0">
          <mxGeometry y="78" width="240" height="26" as="geometry" />
        </mxCell>
        <mxCell id="qgOjimdr9z-4lWp2b6XH-24" value="- order : Order" style="text;align=left;verticalAlign=top;spacingLeft=4;spacingRight=4;overflow=hidden;rotatable=0;points=[[0,0.5],[1,0.5]];portConstraint=eastwest;rounded=0;shadow=0;html=0;" vertex="1" parent="awH9nuX9rls_5YEyZ0Cw-0">
          <mxGeometry y="104" width="240" height="26" as="geometry" />
        </mxCell>
        <mxCell id="awH9nuX9rls_5YEyZ0Cw-6" value="" style="line;html=1;strokeWidth=1;align=left;verticalAlign=middle;spacingTop=-1;spacingLeft=3;spacingRight=3;rotatable=0;labelPosition=right;points=[];portConstraint=eastwest;" vertex="1" parent="awH9nuX9rls_5YEyZ0Cw-0">
          <mxGeometry y="130" width="240" height="8" as="geometry" />
        </mxCell>
        <mxCell id="K1IRQxWN2hWexRfnqdXX-3" value="+ register(String email, &#xa;String username,&#xa;String password) : boolean" style="text;align=left;verticalAlign=top;spacingLeft=4;spacingRight=4;overflow=hidden;rotatable=0;points=[[0,0.5],[1,0.5]];portConstraint=eastwest;" vertex="1" parent="awH9nuX9rls_5YEyZ0Cw-0">
          <mxGeometry y="138" width="240" height="54" as="geometry" />
        </mxCell>
        <mxCell id="Tcdfzcvd-_jrXpOhCnX9-6" value="+ addOrder(Integer IDOrder, &#xa;String menu) : boolean" style="text;align=left;verticalAlign=top;spacingLeft=4;spacingRight=4;overflow=hidden;rotatable=0;points=[[0,0.5],[1,0.5]];portConstraint=eastwest;" vertex="1" parent="awH9nuX9rls_5YEyZ0Cw-0">
          <mxGeometry y="192" width="240" height="38" as="geometry" />
        </mxCell>
        <mxCell id="Tcdfzcvd-_jrXpOhCnX9-7" value="+ editOrder(Integer IDOrder, &#xa;String menu1, String menu2) : boolean" style="text;align=left;verticalAlign=top;spacingLeft=4;spacingRight=4;overflow=hidden;rotatable=0;points=[[0,0.5],[1,0.5]];portConstraint=eastwest;" vertex="1" parent="awH9nuX9rls_5YEyZ0Cw-0">
          <mxGeometry y="230" width="240" height="40" as="geometry" />
        </mxCell>
        <mxCell id="iFjl2SQ5cRS5z_VwTl6N-3" value="+ deleteOrder(Integer IDOrder) : boolean" style="text;align=left;verticalAlign=top;spacingLeft=4;spacingRight=4;overflow=hidden;rotatable=0;points=[[0,0.5],[1,0.5]];portConstraint=eastwest;" vertex="1" parent="awH9nuX9rls_5YEyZ0Cw-0">
          <mxGeometry y="270" width="240" height="26" as="geometry" />
        </mxCell>
        <mxCell id="awH9nuX9rls_5YEyZ0Cw-9" value="Sorted_Menu" style="swimlane;fontStyle=0;align=center;verticalAlign=top;childLayout=stackLayout;horizontal=1;startSize=26;horizontalStack=0;resizeParent=1;resizeLast=0;collapsible=1;marginBottom=0;rounded=0;shadow=0;strokeWidth=1;" vertex="1" parent="WIyWlLk6GJQsqaUBKTNV-1">
          <mxGeometry x="78" y="883" width="178" height="100" as="geometry">
            <mxRectangle x="230" y="140" width="160" height="26" as="alternateBounds" />
          </mxGeometry>
        </mxCell>
        <mxCell id="vfd7xmm8oZpywfkyKX7Z-50" value="- list_menu : Array of Makanan" style="text;align=left;verticalAlign=top;spacingLeft=4;spacingRight=4;overflow=hidden;rotatable=0;points=[[0,0.5],[1,0.5]];portConstraint=eastwest;" vertex="1" parent="awH9nuX9rls_5YEyZ0Cw-9">
          <mxGeometry y="26" width="178" height="26" as="geometry" />
        </mxCell>
        <mxCell id="awH9nuX9rls_5YEyZ0Cw-10" value="- resto : Resto" style="text;align=left;verticalAlign=top;spacingLeft=4;spacingRight=4;overflow=hidden;rotatable=0;points=[[0,0.5],[1,0.5]];portConstraint=eastwest;" vertex="1" parent="awH9nuX9rls_5YEyZ0Cw-9">
          <mxGeometry y="52" width="178" height="26" as="geometry" />
        </mxCell>
        <mxCell id="awH9nuX9rls_5YEyZ0Cw-13" value="" style="line;html=1;strokeWidth=1;align=left;verticalAlign=middle;spacingTop=-1;spacingLeft=3;spacingRight=3;rotatable=0;labelPosition=right;points=[];portConstraint=eastwest;" vertex="1" parent="awH9nuX9rls_5YEyZ0Cw-9">
          <mxGeometry y="78" width="178" height="8" as="geometry" />
        </mxCell>
        <mxCell id="Tcdfzcvd-_jrXpOhCnX9-18" style="edgeStyle=orthogonalEdgeStyle;rounded=0;orthogonalLoop=1;jettySize=auto;html=1;endArrow=none;endFill=0;dashed=1;" edge="1" parent="WIyWlLk6GJQsqaUBKTNV-1" source="awH9nuX9rls_5YEyZ0Cw-15">
          <mxGeometry relative="1" as="geometry">
            <mxPoint x="160" y="696" as="targetPoint" />
          </mxGeometry>
        </mxCell>
        <mxCell id="awH9nuX9rls_5YEyZ0Cw-15" value="Order" style="swimlane;fontStyle=0;align=center;verticalAlign=top;childLayout=stackLayout;horizontal=1;startSize=26;horizontalStack=0;resizeParent=1;resizeLast=0;collapsible=1;marginBottom=0;rounded=0;shadow=0;strokeWidth=1;" vertex="1" parent="WIyWlLk6GJQsqaUBKTNV-1">
          <mxGeometry x="300" y="602" width="270" height="190" as="geometry">
            <mxRectangle x="230" y="140" width="160" height="26" as="alternateBounds" />
          </mxGeometry>
        </mxCell>
        <mxCell id="awH9nuX9rls_5YEyZ0Cw-16" value="- IDOrder : Integer" style="text;align=left;verticalAlign=top;spacingLeft=4;spacingRight=4;overflow=hidden;rotatable=0;points=[[0,0.5],[1,0.5]];portConstraint=eastwest;" vertex="1" parent="awH9nuX9rls_5YEyZ0Cw-15">
          <mxGeometry y="26" width="270" height="26" as="geometry" />
        </mxCell>
        <mxCell id="Tcdfzcvd-_jrXpOhCnX9-14" value="- IDPelanggan : integer" style="text;align=left;verticalAlign=top;spacingLeft=4;spacingRight=4;overflow=hidden;rotatable=0;points=[[0,0.5],[1,0.5]];portConstraint=eastwest;" vertex="1" parent="awH9nuX9rls_5YEyZ0Cw-15">
          <mxGeometry y="52" width="270" height="26" as="geometry" />
        </mxCell>
        <mxCell id="vfd7xmm8oZpywfkyKX7Z-39" value="- filter : Label" style="text;align=left;verticalAlign=top;spacingLeft=4;spacingRight=4;overflow=hidden;rotatable=0;points=[[0,0.5],[1,0.5]];portConstraint=eastwest;rounded=0;shadow=0;html=0;" vertex="1" parent="awH9nuX9rls_5YEyZ0Cw-15">
          <mxGeometry y="78" width="270" height="26" as="geometry" />
        </mxCell>
        <mxCell id="awH9nuX9rls_5YEyZ0Cw-17" value="- pesanan : Sorted_Menu" style="text;align=left;verticalAlign=top;spacingLeft=4;spacingRight=4;overflow=hidden;rotatable=0;points=[[0,0.5],[1,0.5]];portConstraint=eastwest;rounded=0;shadow=0;html=0;" vertex="1" parent="awH9nuX9rls_5YEyZ0Cw-15">
          <mxGeometry y="104" width="270" height="26" as="geometry" />
        </mxCell>
        <mxCell id="awH9nuX9rls_5YEyZ0Cw-19" value="" style="line;html=1;strokeWidth=1;align=left;verticalAlign=middle;spacingTop=-1;spacingLeft=3;spacingRight=3;rotatable=0;labelPosition=right;points=[];portConstraint=eastwest;" vertex="1" parent="awH9nuX9rls_5YEyZ0Cw-15">
          <mxGeometry y="130" width="270" height="8" as="geometry" />
        </mxCell>
        <mxCell id="Tcdfzcvd-_jrXpOhCnX9-16" value="- editPesanan(Sorted_Menu menu) : boolean" style="text;align=left;verticalAlign=top;spacingLeft=4;spacingRight=4;overflow=hidden;rotatable=0;points=[[0,0.5],[1,0.5]];portConstraint=eastwest;rounded=0;shadow=0;html=0;" vertex="1" parent="awH9nuX9rls_5YEyZ0Cw-15">
          <mxGeometry y="138" width="270" height="26" as="geometry" />
        </mxCell>
        <mxCell id="Tcdfzcvd-_jrXpOhCnX9-17" value="- deletePesanan(Sorted_Menu menu) : boolean" style="text;align=left;verticalAlign=top;spacingLeft=4;spacingRight=4;overflow=hidden;rotatable=0;points=[[0,0.5],[1,0.5]];portConstraint=eastwest;rounded=0;shadow=0;html=0;" vertex="1" parent="awH9nuX9rls_5YEyZ0Cw-15">
          <mxGeometry y="164" width="270" height="26" as="geometry" />
        </mxCell>
        <mxCell id="Tcdfzcvd-_jrXpOhCnX9-39" style="edgeStyle=orthogonalEdgeStyle;rounded=0;orthogonalLoop=1;jettySize=auto;html=1;entryX=0.5;entryY=1;entryDx=0;entryDy=0;endArrow=diamond;endFill=1;endSize=15;" edge="1" parent="WIyWlLk6GJQsqaUBKTNV-1" source="awH9nuX9rls_5YEyZ0Cw-21" target="awH9nuX9rls_5YEyZ0Cw-27">
          <mxGeometry relative="1" as="geometry" />
        </mxCell>
        <mxCell id="awH9nuX9rls_5YEyZ0Cw-21" value="Makanan" style="swimlane;fontStyle=0;align=center;verticalAlign=top;childLayout=stackLayout;horizontal=1;startSize=26;horizontalStack=0;resizeParent=1;resizeLast=0;collapsible=1;marginBottom=0;rounded=0;shadow=0;strokeWidth=1;" vertex="1" parent="WIyWlLk6GJQsqaUBKTNV-1">
          <mxGeometry x="692" y="1052" width="206" height="180" as="geometry">
            <mxRectangle x="230" y="140" width="160" height="26" as="alternateBounds" />
          </mxGeometry>
        </mxCell>
        <mxCell id="awH9nuX9rls_5YEyZ0Cw-23" value="- IDMakanan : Integer" style="text;align=left;verticalAlign=top;spacingLeft=4;spacingRight=4;overflow=hidden;rotatable=0;points=[[0,0.5],[1,0.5]];portConstraint=eastwest;rounded=0;shadow=0;html=0;" vertex="1" parent="awH9nuX9rls_5YEyZ0Cw-21">
          <mxGeometry y="26" width="206" height="26" as="geometry" />
        </mxCell>
        <mxCell id="awH9nuX9rls_5YEyZ0Cw-22" value="- namaMakanan : String" style="text;align=left;verticalAlign=top;spacingLeft=4;spacingRight=4;overflow=hidden;rotatable=0;points=[[0,0.5],[1,0.5]];portConstraint=eastwest;" vertex="1" parent="awH9nuX9rls_5YEyZ0Cw-21">
          <mxGeometry y="52" width="206" height="26" as="geometry" />
        </mxCell>
        <mxCell id="K1IRQxWN2hWexRfnqdXX-0" value="- label : Label" style="text;align=left;verticalAlign=top;spacingLeft=4;spacingRight=4;overflow=hidden;rotatable=0;points=[[0,0.5],[1,0.5]];portConstraint=eastwest;rounded=0;shadow=0;html=0;" vertex="1" parent="awH9nuX9rls_5YEyZ0Cw-21">
          <mxGeometry y="78" width="206" height="26" as="geometry" />
        </mxCell>
        <mxCell id="awH9nuX9rls_5YEyZ0Cw-24" value="- harga : Integer" style="text;align=left;verticalAlign=top;spacingLeft=4;spacingRight=4;overflow=hidden;rotatable=0;points=[[0,0.5],[1,0.5]];portConstraint=eastwest;rounded=0;shadow=0;html=0;" vertex="1" parent="awH9nuX9rls_5YEyZ0Cw-21">
          <mxGeometry y="104" width="206" height="26" as="geometry" />
        </mxCell>
        <mxCell id="awH9nuX9rls_5YEyZ0Cw-25" value="" style="line;html=1;strokeWidth=1;align=left;verticalAlign=middle;spacingTop=-1;spacingLeft=3;spacingRight=3;rotatable=0;labelPosition=right;points=[];portConstraint=eastwest;" vertex="1" parent="awH9nuX9rls_5YEyZ0Cw-21">
          <mxGeometry y="130" width="206" height="8" as="geometry" />
        </mxCell>
        <mxCell id="qgOjimdr9z-4lWp2b6XH-9" value="+ editHarga(Integer IDMakanan, &#xa;Integer harga) : boolean" style="text;align=left;verticalAlign=top;spacingLeft=4;spacingRight=4;overflow=hidden;rotatable=0;points=[[0,0.5],[1,0.5]];portConstraint=eastwest;" vertex="1" parent="awH9nuX9rls_5YEyZ0Cw-21">
          <mxGeometry y="138" width="206" height="42" as="geometry" />
        </mxCell>
        <mxCell id="awH9nuX9rls_5YEyZ0Cw-27" value="Resto" style="swimlane;fontStyle=0;align=center;verticalAlign=top;childLayout=stackLayout;horizontal=1;startSize=26;horizontalStack=0;resizeParent=1;resizeLast=0;collapsible=1;marginBottom=0;rounded=0;shadow=0;strokeWidth=1;" vertex="1" parent="WIyWlLk6GJQsqaUBKTNV-1">
          <mxGeometry x="660" y="422" width="270" height="426" as="geometry">
            <mxRectangle x="230" y="140" width="160" height="26" as="alternateBounds" />
          </mxGeometry>
        </mxCell>
        <mxCell id="awH9nuX9rls_5YEyZ0Cw-30" value="- IDResto : Integer" style="text;align=left;verticalAlign=top;spacingLeft=4;spacingRight=4;overflow=hidden;rotatable=0;points=[[0,0.5],[1,0.5]];portConstraint=eastwest;rounded=0;shadow=0;html=0;" vertex="1" parent="awH9nuX9rls_5YEyZ0Cw-27">
          <mxGeometry y="26" width="270" height="26" as="geometry" />
        </mxCell>
        <mxCell id="awH9nuX9rls_5YEyZ0Cw-29" value="- phone : Integer" style="text;align=left;verticalAlign=top;spacingLeft=4;spacingRight=4;overflow=hidden;rotatable=0;points=[[0,0.5],[1,0.5]];portConstraint=eastwest;rounded=0;shadow=0;html=0;" vertex="1" parent="awH9nuX9rls_5YEyZ0Cw-27">
          <mxGeometry y="52" width="270" height="26" as="geometry" />
        </mxCell>
        <mxCell id="Tcdfzcvd-_jrXpOhCnX9-48" value="- alamatResto : String" style="text;align=left;verticalAlign=top;spacingLeft=4;spacingRight=4;overflow=hidden;rotatable=0;points=[[0,0.5],[1,0.5]];portConstraint=eastwest;rounded=0;shadow=0;html=0;" vertex="1" parent="awH9nuX9rls_5YEyZ0Cw-27">
          <mxGeometry y="78" width="270" height="26" as="geometry" />
        </mxCell>
        <mxCell id="Tcdfzcvd-_jrXpOhCnX9-52" value="- makanan : Makanan" style="text;align=left;verticalAlign=top;spacingLeft=4;spacingRight=4;overflow=hidden;rotatable=0;points=[[0,0.5],[1,0.5]];portConstraint=eastwest;rounded=0;shadow=0;html=0;" vertex="1" parent="awH9nuX9rls_5YEyZ0Cw-27">
          <mxGeometry y="104" width="270" height="26" as="geometry" />
        </mxCell>
        <mxCell id="iFjl2SQ5cRS5z_VwTl6N-6" value="- bukaTutup : String" style="text;align=left;verticalAlign=top;spacingLeft=4;spacingRight=4;overflow=hidden;rotatable=0;points=[[0,0.5],[1,0.5]];portConstraint=eastwest;rounded=0;shadow=0;html=0;" vertex="1" parent="awH9nuX9rls_5YEyZ0Cw-27">
          <mxGeometry y="130" width="270" height="26" as="geometry" />
        </mxCell>
        <mxCell id="awH9nuX9rls_5YEyZ0Cw-31" value="" style="line;html=1;strokeWidth=1;align=left;verticalAlign=middle;spacingTop=-1;spacingLeft=3;spacingRight=3;rotatable=0;labelPosition=right;points=[];portConstraint=eastwest;" vertex="1" parent="awH9nuX9rls_5YEyZ0Cw-27">
          <mxGeometry y="156" width="270" height="8" as="geometry" />
        </mxCell>
        <mxCell id="Tcdfzcvd-_jrXpOhCnX9-1" value="+ addOrder(Order order) : boolean" style="text;align=left;verticalAlign=top;spacingLeft=4;spacingRight=4;overflow=hidden;rotatable=0;points=[[0,0.5],[1,0.5]];portConstraint=eastwest;" vertex="1" parent="awH9nuX9rls_5YEyZ0Cw-27">
          <mxGeometry y="164" width="270" height="26" as="geometry" />
        </mxCell>
        <mxCell id="Tcdfzcvd-_jrXpOhCnX9-40" value="+ register(String email, &#xa;String username,&#xa;String password) : boolean" style="text;align=left;verticalAlign=top;spacingLeft=4;spacingRight=4;overflow=hidden;rotatable=0;points=[[0,0.5],[1,0.5]];portConstraint=eastwest;" vertex="1" parent="awH9nuX9rls_5YEyZ0Cw-27">
          <mxGeometry y="190" width="270" height="54" as="geometry" />
        </mxCell>
        <mxCell id="Tcdfzcvd-_jrXpOhCnX9-47" value="+ showOrder(Integer IDOrder) : void" style="text;align=left;verticalAlign=top;spacingLeft=4;spacingRight=4;overflow=hidden;rotatable=0;points=[[0,0.5],[1,0.5]];portConstraint=eastwest;" vertex="1" parent="awH9nuX9rls_5YEyZ0Cw-27">
          <mxGeometry y="244" width="270" height="26" as="geometry" />
        </mxCell>
        <mxCell id="Tcdfzcvd-_jrXpOhCnX9-49" value="+ deleteOrder(Integer IDOrder) : boolean" style="text;align=left;verticalAlign=top;spacingLeft=4;spacingRight=4;overflow=hidden;rotatable=0;points=[[0,0.5],[1,0.5]];portConstraint=eastwest;" vertex="1" parent="awH9nuX9rls_5YEyZ0Cw-27">
          <mxGeometry y="270" width="270" height="26" as="geometry" />
        </mxCell>
        <mxCell id="Tcdfzcvd-_jrXpOhCnX9-53" value="+ editOrder(Integer IDOrder, &#xa;String menu1, String menu2) : boolean" style="text;align=left;verticalAlign=top;spacingLeft=4;spacingRight=4;overflow=hidden;rotatable=0;points=[[0,0.5],[1,0.5]];portConstraint=eastwest;" vertex="1" parent="awH9nuX9rls_5YEyZ0Cw-27">
          <mxGeometry y="296" width="270" height="40" as="geometry" />
        </mxCell>
        <mxCell id="Tcdfzcvd-_jrXpOhCnX9-25" value="+ addMakanan(Integer IDMakanan) : boolean" style="text;align=left;verticalAlign=top;spacingLeft=4;spacingRight=4;overflow=hidden;rotatable=0;points=[[0,0.5],[1,0.5]];portConstraint=eastwest;" vertex="1" parent="awH9nuX9rls_5YEyZ0Cw-27">
          <mxGeometry y="336" width="270" height="26" as="geometry" />
        </mxCell>
        <mxCell id="Tcdfzcvd-_jrXpOhCnX9-50" value="+ editMakanan(String menu,&#xa;String menu1) : boolean" style="text;align=left;verticalAlign=top;spacingLeft=4;spacingRight=4;overflow=hidden;rotatable=0;points=[[0,0.5],[1,0.5]];portConstraint=eastwest;" vertex="1" parent="awH9nuX9rls_5YEyZ0Cw-27">
          <mxGeometry y="362" width="270" height="36" as="geometry" />
        </mxCell>
        <mxCell id="Tcdfzcvd-_jrXpOhCnX9-51" value="+ deleteMakanan(Integer IDMakanan) : boolean" style="text;align=left;verticalAlign=top;spacingLeft=4;spacingRight=4;overflow=hidden;rotatable=0;points=[[0,0.5],[1,0.5]];portConstraint=eastwest;" vertex="1" parent="awH9nuX9rls_5YEyZ0Cw-27">
          <mxGeometry y="398" width="270" height="26" as="geometry" />
        </mxCell>
        <mxCell id="Tcdfzcvd-_jrXpOhCnX9-72" style="edgeStyle=orthogonalEdgeStyle;rounded=0;orthogonalLoop=1;jettySize=auto;html=1;entryX=0;entryY=0.5;entryDx=0;entryDy=0;endArrow=none;endFill=0;startArrow=block;startFill=0;startSize=15;" edge="1" parent="WIyWlLk6GJQsqaUBKTNV-1" source="Xs8Y9cp1D7O78wNm5cWw-5" target="Tcdfzcvd-_jrXpOhCnX9-10">
          <mxGeometry relative="1" as="geometry" />
        </mxCell>
        <mxCell id="Xs8Y9cp1D7O78wNm5cWw-5" value="User" style="swimlane;fontStyle=0;align=center;verticalAlign=top;childLayout=stackLayout;horizontal=1;startSize=26;horizontalStack=0;resizeParent=1;resizeLast=0;collapsible=1;marginBottom=0;rounded=0;shadow=0;strokeWidth=1;" vertex="1" parent="WIyWlLk6GJQsqaUBKTNV-1">
          <mxGeometry x="360" y="202" width="210" height="180" as="geometry">
            <mxRectangle x="550" y="140" width="160" height="26" as="alternateBounds" />
          </mxGeometry>
        </mxCell>
        <mxCell id="Tcdfzcvd-_jrXpOhCnX9-2" value="- username : String" style="text;align=left;verticalAlign=top;spacingLeft=4;spacingRight=4;overflow=hidden;rotatable=0;points=[[0,0.5],[1,0.5]];portConstraint=eastwest;fontStyle=0" vertex="1" parent="Xs8Y9cp1D7O78wNm5cWw-5">
          <mxGeometry y="26" width="210" height="26" as="geometry" />
        </mxCell>
        <mxCell id="Tcdfzcvd-_jrXpOhCnX9-3" value="- email : String" style="text;align=left;verticalAlign=top;spacingLeft=4;spacingRight=4;overflow=hidden;rotatable=0;points=[[0,0.5],[1,0.5]];portConstraint=eastwest;fontStyle=0" vertex="1" parent="Xs8Y9cp1D7O78wNm5cWw-5">
          <mxGeometry y="52" width="210" height="26" as="geometry" />
        </mxCell>
        <mxCell id="Xs8Y9cp1D7O78wNm5cWw-7" value="- password : String" style="text;align=left;verticalAlign=top;spacingLeft=4;spacingRight=4;overflow=hidden;rotatable=0;points=[[0,0.5],[1,0.5]];portConstraint=eastwest;fontStyle=0" vertex="1" parent="Xs8Y9cp1D7O78wNm5cWw-5">
          <mxGeometry y="78" width="210" height="26" as="geometry" />
        </mxCell>
        <mxCell id="Xs8Y9cp1D7O78wNm5cWw-10" value="" style="line;html=1;strokeWidth=1;align=left;verticalAlign=middle;spacingTop=-1;spacingLeft=3;spacingRight=3;rotatable=0;labelPosition=right;points=[];portConstraint=eastwest;" vertex="1" parent="Xs8Y9cp1D7O78wNm5cWw-5">
          <mxGeometry y="104" width="210" height="8" as="geometry" />
        </mxCell>
        <mxCell id="qgOjimdr9z-4lWp2b6XH-2" value="+ logout() : boolean" style="text;align=left;verticalAlign=top;spacingLeft=4;spacingRight=4;overflow=hidden;rotatable=0;points=[[0,0.5],[1,0.5]];portConstraint=eastwest;" vertex="1" parent="Xs8Y9cp1D7O78wNm5cWw-5">
          <mxGeometry y="112" width="210" height="26" as="geometry" />
        </mxCell>
        <mxCell id="qgOjimdr9z-4lWp2b6XH-14" style="edgeStyle=orthogonalEdgeStyle;sketch=1;hachureGap=4;jiggle=2;curveFitting=1;orthogonalLoop=1;jettySize=auto;html=1;fontFamily=Architects Daughter;fontSource=https%3A%2F%2Ffonts.googleapis.com%2Fcss%3Ffamily%3DArchitects%2BDaughter;fontSize=16;rounded=0;strokeColor=none;" edge="1" parent="Xs8Y9cp1D7O78wNm5cWw-5" source="qgOjimdr9z-4lWp2b6XH-3">
          <mxGeometry relative="1" as="geometry">
            <mxPoint x="-90" y="521" as="targetPoint" />
          </mxGeometry>
        </mxCell>
        <mxCell id="qgOjimdr9z-4lWp2b6XH-3" value="+ login(String username, &#xa;String password) : boolean" style="text;align=left;verticalAlign=top;spacingLeft=4;spacingRight=4;overflow=hidden;rotatable=0;points=[[0,0.5],[1,0.5]];portConstraint=eastwest;" vertex="1" parent="Xs8Y9cp1D7O78wNm5cWw-5">
          <mxGeometry y="138" width="210" height="40" as="geometry" />
        </mxCell>
        <mxCell id="vfd7xmm8oZpywfkyKX7Z-11" value="Admin" style="swimlane;fontStyle=0;align=center;verticalAlign=top;childLayout=stackLayout;horizontal=1;startSize=26;horizontalStack=0;resizeParent=1;resizeLast=0;collapsible=1;marginBottom=0;rounded=0;shadow=0;strokeWidth=1;" vertex="1" parent="WIyWlLk6GJQsqaUBKTNV-1">
          <mxGeometry x="1160" y="163" width="260" height="308" as="geometry">
            <mxRectangle x="1160" y="162" width="160" height="26" as="alternateBounds" />
          </mxGeometry>
        </mxCell>
        <mxCell id="Tcdfzcvd-_jrXpOhCnX9-65" value="- IDAdmin : Integer" style="text;align=left;verticalAlign=top;spacingLeft=4;spacingRight=4;overflow=hidden;rotatable=0;points=[[0,0.5],[1,0.5]];portConstraint=eastwest;rounded=0;shadow=0;html=0;" vertex="1" parent="vfd7xmm8oZpywfkyKX7Z-11">
          <mxGeometry y="26" width="260" height="26" as="geometry" />
        </mxCell>
        <mxCell id="Tcdfzcvd-_jrXpOhCnX9-66" value="- pelanggan : Pelanggan" style="text;align=left;verticalAlign=top;spacingLeft=4;spacingRight=4;overflow=hidden;rotatable=0;points=[[0,0.5],[1,0.5]];portConstraint=eastwest;rounded=0;shadow=0;html=0;" vertex="1" parent="vfd7xmm8oZpywfkyKX7Z-11">
          <mxGeometry y="52" width="260" height="26" as="geometry" />
        </mxCell>
        <mxCell id="vfd7xmm8oZpywfkyKX7Z-12" value="- resto : Resto" style="text;align=left;verticalAlign=top;spacingLeft=4;spacingRight=4;overflow=hidden;rotatable=0;points=[[0,0.5],[1,0.5]];portConstraint=eastwest;rounded=0;shadow=0;html=0;" vertex="1" parent="vfd7xmm8oZpywfkyKX7Z-11">
          <mxGeometry y="78" width="260" height="26" as="geometry" />
        </mxCell>
        <mxCell id="vfd7xmm8oZpywfkyKX7Z-18" value="" style="line;html=1;strokeWidth=1;align=left;verticalAlign=middle;spacingTop=-1;spacingLeft=3;spacingRight=3;rotatable=0;labelPosition=right;points=[];portConstraint=eastwest;" vertex="1" parent="vfd7xmm8oZpywfkyKX7Z-11">
          <mxGeometry y="104" width="260" height="8" as="geometry" />
        </mxCell>
        <mxCell id="Tcdfzcvd-_jrXpOhCnX9-10" value="+ deletePelanggan(IDPelanggan &#xa;String) : boolean" style="text;align=left;verticalAlign=top;spacingLeft=4;spacingRight=4;overflow=hidden;rotatable=0;points=[[0,0.5],[1,0.5]];portConstraint=eastwest;" vertex="1" parent="vfd7xmm8oZpywfkyKX7Z-11">
          <mxGeometry y="112" width="260" height="34" as="geometry" />
        </mxCell>
        <mxCell id="Tcdfzcvd-_jrXpOhCnX9-21" value="+ addResto(Resto resto) : boolean" style="text;align=left;verticalAlign=top;spacingLeft=4;spacingRight=4;overflow=hidden;rotatable=0;points=[[0,0.5],[1,0.5]];portConstraint=eastwest;" vertex="1" parent="vfd7xmm8oZpywfkyKX7Z-11">
          <mxGeometry y="146" width="260" height="24" as="geometry" />
        </mxCell>
        <mxCell id="Tcdfzcvd-_jrXpOhCnX9-67" value="+ deleteResto(IDResto &#xa;String) : boolean" style="text;align=left;verticalAlign=top;spacingLeft=4;spacingRight=4;overflow=hidden;rotatable=0;points=[[0,0.5],[1,0.5]];portConstraint=eastwest;" vertex="1" parent="vfd7xmm8oZpywfkyKX7Z-11">
          <mxGeometry y="170" width="260" height="34" as="geometry" />
        </mxCell>
        <mxCell id="Tcdfzcvd-_jrXpOhCnX9-70" value="+ addMakanan(Integer IDMakanan) : boolean" style="text;align=left;verticalAlign=top;spacingLeft=4;spacingRight=4;overflow=hidden;rotatable=0;points=[[0,0.5],[1,0.5]];portConstraint=eastwest;" vertex="1" parent="vfd7xmm8oZpywfkyKX7Z-11">
          <mxGeometry y="204" width="260" height="26" as="geometry" />
        </mxCell>
        <mxCell id="Tcdfzcvd-_jrXpOhCnX9-71" value="+ editMakanan(String menu,&#xa;String menu1) : boolean" style="text;align=left;verticalAlign=top;spacingLeft=4;spacingRight=4;overflow=hidden;rotatable=0;points=[[0,0.5],[1,0.5]];portConstraint=eastwest;" vertex="1" parent="vfd7xmm8oZpywfkyKX7Z-11">
          <mxGeometry y="230" width="260" height="36" as="geometry" />
        </mxCell>
        <mxCell id="Tcdfzcvd-_jrXpOhCnX9-68" value="+ deleteMakanan(IDMakanan &#xa;String) : boolean" style="text;align=left;verticalAlign=top;spacingLeft=4;spacingRight=4;overflow=hidden;rotatable=0;points=[[0,0.5],[1,0.5]];portConstraint=eastwest;" vertex="1" parent="vfd7xmm8oZpywfkyKX7Z-11">
          <mxGeometry y="266" width="260" height="42" as="geometry" />
        </mxCell>
        <mxCell id="Tcdfzcvd-_jrXpOhCnX9-12" style="edgeStyle=orthogonalEdgeStyle;rounded=0;orthogonalLoop=1;jettySize=auto;html=1;entryX=-0.004;entryY=0.885;entryDx=0;entryDy=0;entryPerimeter=0;endArrow=block;endFill=0;endSize=15;" edge="1" parent="WIyWlLk6GJQsqaUBKTNV-1" target="qgOjimdr9z-4lWp2b6XH-2">
          <mxGeometry relative="1" as="geometry">
            <mxPoint x="280" y="337.0100000000002" as="sourcePoint" />
          </mxGeometry>
        </mxCell>
        <mxCell id="Tcdfzcvd-_jrXpOhCnX9-15" style="edgeStyle=orthogonalEdgeStyle;rounded=0;orthogonalLoop=1;jettySize=auto;html=1;entryX=0.455;entryY=0;entryDx=0;entryDy=0;entryPerimeter=0;endArrow=none;endFill=0;" edge="1" parent="WIyWlLk6GJQsqaUBKTNV-1" target="awH9nuX9rls_5YEyZ0Cw-9">
          <mxGeometry relative="1" as="geometry">
            <mxPoint x="160" y="485" as="sourcePoint" />
          </mxGeometry>
        </mxCell>
        <mxCell id="Tcdfzcvd-_jrXpOhCnX9-22" style="edgeStyle=orthogonalEdgeStyle;rounded=0;orthogonalLoop=1;jettySize=auto;html=1;entryX=-0.021;entryY=0.1;entryDx=0;entryDy=0;entryPerimeter=0;endArrow=none;endFill=0;startArrow=block;startFill=0;startSize=15;" edge="1" parent="WIyWlLk6GJQsqaUBKTNV-1" target="iFjl2SQ5cRS5z_VwTl6N-6">
          <mxGeometry relative="1" as="geometry">
            <mxPoint x="465" y="382" as="sourcePoint" />
          </mxGeometry>
        </mxCell>
        <mxCell id="Tcdfzcvd-_jrXpOhCnX9-27" value="Label" style="swimlane;fontStyle=0;align=center;verticalAlign=top;childLayout=stackLayout;horizontal=1;startSize=26;horizontalStack=0;resizeParent=1;resizeLast=0;collapsible=1;marginBottom=0;rounded=0;shadow=0;strokeWidth=1;" vertex="1" parent="WIyWlLk6GJQsqaUBKTNV-1">
          <mxGeometry x="295" y="882" width="260" height="164" as="geometry">
            <mxRectangle x="230" y="140" width="160" height="26" as="alternateBounds" />
          </mxGeometry>
        </mxCell>
        <mxCell id="Tcdfzcvd-_jrXpOhCnX9-28" value="- IDLabel : Integer" style="text;align=left;verticalAlign=top;spacingLeft=4;spacingRight=4;overflow=hidden;rotatable=0;points=[[0,0.5],[1,0.5]];portConstraint=eastwest;" vertex="1" parent="Tcdfzcvd-_jrXpOhCnX9-27">
          <mxGeometry y="26" width="260" height="26" as="geometry" />
        </mxCell>
        <mxCell id="Tcdfzcvd-_jrXpOhCnX9-29" value="- detail : String" style="text;align=left;verticalAlign=top;spacingLeft=4;spacingRight=4;overflow=hidden;rotatable=0;points=[[0,0.5],[1,0.5]];portConstraint=eastwest;" vertex="1" parent="Tcdfzcvd-_jrXpOhCnX9-27">
          <mxGeometry y="52" width="260" height="26" as="geometry" />
        </mxCell>
        <mxCell id="Tcdfzcvd-_jrXpOhCnX9-32" value="" style="line;html=1;strokeWidth=1;align=left;verticalAlign=middle;spacingTop=-1;spacingLeft=3;spacingRight=3;rotatable=0;labelPosition=right;points=[];portConstraint=eastwest;" vertex="1" parent="Tcdfzcvd-_jrXpOhCnX9-27">
          <mxGeometry y="78" width="260" height="8" as="geometry" />
        </mxCell>
        <mxCell id="Tcdfzcvd-_jrXpOhCnX9-33" value="- editDetail(String information) : boolean" style="text;align=left;verticalAlign=top;spacingLeft=4;spacingRight=4;overflow=hidden;rotatable=0;points=[[0,0.5],[1,0.5]];portConstraint=eastwest;rounded=0;shadow=0;html=0;" vertex="1" parent="Tcdfzcvd-_jrXpOhCnX9-27">
          <mxGeometry y="86" width="260" height="26" as="geometry" />
        </mxCell>
        <mxCell id="Tcdfzcvd-_jrXpOhCnX9-34" value="- deleteDetail(String information) : boolean" style="text;align=left;verticalAlign=top;spacingLeft=4;spacingRight=4;overflow=hidden;rotatable=0;points=[[0,0.5],[1,0.5]];portConstraint=eastwest;rounded=0;shadow=0;html=0;" vertex="1" parent="Tcdfzcvd-_jrXpOhCnX9-27">
          <mxGeometry y="112" width="260" height="26" as="geometry" />
        </mxCell>
        <mxCell id="Tcdfzcvd-_jrXpOhCnX9-37" value="- addDetail(String information) : boolean" style="text;align=left;verticalAlign=top;spacingLeft=4;spacingRight=4;overflow=hidden;rotatable=0;points=[[0,0.5],[1,0.5]];portConstraint=eastwest;rounded=0;shadow=0;html=0;" vertex="1" parent="Tcdfzcvd-_jrXpOhCnX9-27">
          <mxGeometry y="138" width="260" height="26" as="geometry" />
        </mxCell>
        <mxCell id="Tcdfzcvd-_jrXpOhCnX9-35" style="edgeStyle=orthogonalEdgeStyle;rounded=0;orthogonalLoop=1;jettySize=auto;html=1;entryX=0.463;entryY=1;entryDx=0;entryDy=0;entryPerimeter=0;endArrow=diamond;endFill=0;startSize=15;endSize=15;" edge="1" parent="WIyWlLk6GJQsqaUBKTNV-1" source="Tcdfzcvd-_jrXpOhCnX9-27" target="Tcdfzcvd-_jrXpOhCnX9-17">
          <mxGeometry relative="1" as="geometry" />
        </mxCell>
        <mxCell id="Tcdfzcvd-_jrXpOhCnX9-44" style="edgeStyle=orthogonalEdgeStyle;rounded=0;orthogonalLoop=1;jettySize=auto;html=1;entryX=-0.014;entryY=0.309;entryDx=0;entryDy=0;entryPerimeter=0;endArrow=none;endFill=0;" edge="1" parent="WIyWlLk6GJQsqaUBKTNV-1" source="awH9nuX9rls_5YEyZ0Cw-15" target="Tcdfzcvd-_jrXpOhCnX9-40">
          <mxGeometry relative="1" as="geometry" />
        </mxCell>
        <mxCell id="Tcdfzcvd-_jrXpOhCnX9-45" style="edgeStyle=orthogonalEdgeStyle;rounded=0;orthogonalLoop=1;jettySize=auto;html=1;entryX=0.333;entryY=-0.005;entryDx=0;entryDy=0;entryPerimeter=0;endArrow=diamond;endFill=1;endSize=15;" edge="1" parent="WIyWlLk6GJQsqaUBKTNV-1" source="Tcdfzcvd-_jrXpOhCnX9-27" target="awH9nuX9rls_5YEyZ0Cw-21">
          <mxGeometry relative="1" as="geometry" />
        </mxCell>
        <mxCell id="Tcdfzcvd-_jrXpOhCnX9-46" style="edgeStyle=orthogonalEdgeStyle;rounded=0;orthogonalLoop=1;jettySize=auto;html=1;entryX=-0.016;entryY=0.077;entryDx=0;entryDy=0;entryPerimeter=0;endArrow=none;endFill=0;" edge="1" parent="WIyWlLk6GJQsqaUBKTNV-1" source="awH9nuX9rls_5YEyZ0Cw-9" target="qgOjimdr9z-4lWp2b6XH-9">
          <mxGeometry relative="1" as="geometry" />
        </mxCell>
        <mxCell id="Tcdfzcvd-_jrXpOhCnX9-54" style="edgeStyle=orthogonalEdgeStyle;rounded=0;orthogonalLoop=1;jettySize=auto;html=1;entryX=1;entryY=0.5;entryDx=0;entryDy=0;endArrow=none;endFill=0;" edge="1" parent="WIyWlLk6GJQsqaUBKTNV-1" source="vfd7xmm8oZpywfkyKX7Z-50" target="Tcdfzcvd-_jrXpOhCnX9-49">
          <mxGeometry relative="1" as="geometry">
            <Array as="points">
              <mxPoint x="40" y="922" />
              <mxPoint x="40" y="1272" />
              <mxPoint x="1200" y="1272" />
              <mxPoint x="1200" y="705" />
            </Array>
          </mxGeometry>
        </mxCell>
        <mxCell id="Tcdfzcvd-_jrXpOhCnX9-73" style="edgeStyle=orthogonalEdgeStyle;rounded=0;orthogonalLoop=1;jettySize=auto;html=1;endArrow=block;endFill=0;dashed=1;endSize=15;" edge="1" parent="WIyWlLk6GJQsqaUBKTNV-1" source="Tcdfzcvd-_jrXpOhCnX9-55">
          <mxGeometry relative="1" as="geometry">
            <mxPoint x="940" y="610" as="targetPoint" />
          </mxGeometry>
        </mxCell>
        <mxCell id="Tcdfzcvd-_jrXpOhCnX9-55" value="&lt;&lt;interface&gt;&gt;&#xa;manageMakanan" style="swimlane;fontStyle=2;align=center;verticalAlign=top;childLayout=stackLayout;horizontal=1;startSize=40;horizontalStack=0;resizeParent=1;resizeLast=0;collapsible=1;marginBottom=0;rounded=0;shadow=0;strokeWidth=1;" vertex="1" parent="WIyWlLk6GJQsqaUBKTNV-1">
          <mxGeometry x="1120" y="540" width="300" height="140" as="geometry">
            <mxRectangle x="1200" y="300" width="160" height="40" as="alternateBounds" />
          </mxGeometry>
        </mxCell>
        <mxCell id="Tcdfzcvd-_jrXpOhCnX9-57" value="" style="line;html=1;strokeWidth=1;align=left;verticalAlign=middle;spacingTop=-1;spacingLeft=3;spacingRight=3;rotatable=0;labelPosition=right;points=[];portConstraint=eastwest;" vertex="1" parent="Tcdfzcvd-_jrXpOhCnX9-55">
          <mxGeometry y="40" width="300" height="8" as="geometry" />
        </mxCell>
        <mxCell id="Tcdfzcvd-_jrXpOhCnX9-61" value="+ addMakanan(Integer IDMakanan) : boolean" style="text;align=left;verticalAlign=top;spacingLeft=4;spacingRight=4;overflow=hidden;rotatable=0;points=[[0,0.5],[1,0.5]];portConstraint=eastwest;" vertex="1" parent="Tcdfzcvd-_jrXpOhCnX9-55">
          <mxGeometry y="48" width="300" height="26" as="geometry" />
        </mxCell>
        <mxCell id="Tcdfzcvd-_jrXpOhCnX9-62" value="+ editMakanan(String menu, String menu1) : boolean" style="text;align=left;verticalAlign=top;spacingLeft=4;spacingRight=4;overflow=hidden;rotatable=0;points=[[0,0.5],[1,0.5]];portConstraint=eastwest;" vertex="1" parent="Tcdfzcvd-_jrXpOhCnX9-55">
          <mxGeometry y="74" width="300" height="36" as="geometry" />
        </mxCell>
        <mxCell id="Tcdfzcvd-_jrXpOhCnX9-63" value="+ deleteMakanan(Integer IDMakanan) : boolean" style="text;align=left;verticalAlign=top;spacingLeft=4;spacingRight=4;overflow=hidden;rotatable=0;points=[[0,0.5],[1,0.5]];portConstraint=eastwest;" vertex="1" parent="Tcdfzcvd-_jrXpOhCnX9-55">
          <mxGeometry y="110" width="300" height="26" as="geometry" />
        </mxCell>
        <mxCell id="Tcdfzcvd-_jrXpOhCnX9-74" style="edgeStyle=orthogonalEdgeStyle;rounded=0;orthogonalLoop=1;jettySize=auto;html=1;entryX=0.423;entryY=0.976;entryDx=0;entryDy=0;entryPerimeter=0;endArrow=block;endFill=0;endSize=15;dashed=1;" edge="1" parent="WIyWlLk6GJQsqaUBKTNV-1" source="Tcdfzcvd-_jrXpOhCnX9-55" target="Tcdfzcvd-_jrXpOhCnX9-68">
          <mxGeometry relative="1" as="geometry" />
        </mxCell>
        <mxCell id="Tcdfzcvd-_jrXpOhCnX9-76" style="edgeStyle=orthogonalEdgeStyle;rounded=0;orthogonalLoop=1;jettySize=auto;html=1;entryX=1;entryY=-0.375;entryDx=0;entryDy=0;entryPerimeter=0;exitX=1;exitY=0.5;exitDx=0;exitDy=0;endArrow=none;endFill=0;" edge="1" parent="WIyWlLk6GJQsqaUBKTNV-1" source="K1IRQxWN2hWexRfnqdXX-0" target="Tcdfzcvd-_jrXpOhCnX9-21">
          <mxGeometry relative="1" as="geometry">
            <Array as="points">
              <mxPoint x="1480" y="1143" />
              <mxPoint x="1480" y="300" />
            </Array>
          </mxGeometry>
        </mxCell>
      </root>
    </mxGraphModel>
  </diagram>
</mxfile>
